<svg id="Layer_1" data-name="Layer 1" xmlns="http://www.w3.org/2000/svg" viewBox="0 0 527.07 114.36"><defs><style>.cls-1{fill:#00a2e3;}</style></defs><path d="M14.31,15.68H66.52v15.8H33.15V48.21H61.56V64H33.15v19.2H67.8V99H14.31Z" transform="translate(-14.31 -9.44)"/><path d="M82.8,79.3V9.44h18.79V80.06c0,4,1.87,5.31,3.4,5.31a8.31,8.31,0,0,0,2.3-.25L109.54,99a24.26,24.26,0,0,1-9.44,1.57C87.21,100.54,82.8,92.13,82.8,79.3Z" transform="translate(-14.31 -9.44)"/><path d="M117.44,122.52l3.34-14.32a19.23,19.23,0,0,0,4.27.81c6.2,0,9.46-3.41,11.1-8.32l.95-3.31-24.47-61.8h18.88l9.07,27.29c1.83,5.75,3.34,11.76,5,18h.52c1.41-6,2.82-12,4.4-18l7.7-27.29h18l-22,64.11c-6,15.89-12.79,24.11-27.7,24.11A29.08,29.08,0,0,1,117.44,122.52Z" transform="translate(-14.31 -9.44)"/><path d="M180.5,81.41c0-13.36,10.63-20.59,35.71-23.24-.37-5.55-3.14-9.17-10-9.17-5.33,0-10.64,2.24-16.79,5.73l-6.68-12.34c8.05-4.92,17.12-8.34,27.09-8.34,16.22,0,25.2,9.26,25.2,28.69V99H219.67l-1.35-6.49h-.47c-5.33,4.69-11.32,8-18.45,8C187.84,100.54,180.5,92.1,180.5,81.41Zm35.71-.83V69.5c-13.36,1.8-17.72,5.62-17.72,10.42,0,4.08,2.81,6.08,7.28,6.08C210,86,212.88,83.9,216.21,80.58Z" transform="translate(-14.31 -9.44)"/><path d="M245.18,91.68,253.63,80c5.75,4.35,11.06,6.67,16.36,6.67,5.6,0,8-2.14,8-5.46,0-4.18-6.29-6.07-12.82-8.63-7.77-3-16.78-8.17-16.78-18.65,0-11.81,9.6-19.85,24.23-19.85,9.72,0,16.95,3.92,22.35,8l-8.41,11.28c-4.51-3.28-9-5.41-13.35-5.41C268.37,48,266,49.85,266,53c0,4.05,5.94,5.6,12.52,8,8,3,17.08,7.49,17.08,19.08s-9.06,20.46-26.05,20.46A41.17,41.17,0,0,1,245.18,91.68Z" transform="translate(-14.31 -9.44)"/><path class="cls-1" d="M300.88,15.68h19.3L326,54.6c1.1,8.78,2.3,17.57,3.4,26.35h.51c1.63-8.78,3.3-17.67,5-26.35l9-38.92h16l9,38.92c1.66,8.47,3.33,17.46,5,26.35h.51c1.1-8.89,2.26-17.78,3.36-26.35l5.77-38.92h18L386.57,99H362.88l-8.14-37.84c-1.33-6.44-2.44-13.12-3.34-19.34h-.51c-1,6.22-2.06,12.9-3.39,19.34L339.61,99H316.35Z" transform="translate(-14.31 -9.44)"/><path class="cls-1" d="M412.92,15.68h52.2v15.8H431.75V48.21h28.41V64H431.75v19.2H466.4V99H412.92Z" transform="translate(-14.31 -9.44)"/><path class="cls-1" d="M498.14,92.24h-.47L496.11,99h-14.7V9.44H500.2V31.32l-.46,9.75c4.81-4.32,10.79-7,16.78-7,15.35,0,24.86,12.69,24.86,32.14,0,21.86-13,34.35-26.68,34.35C509,100.54,503.18,97.68,498.14,92.24Zm24-25.74c0-11.38-3.52-17.08-11-17.08-3.86,0-7.23,1.73-10.9,5.68V81.15a15.09,15.09,0,0,0,10.12,4C516.87,85.16,522.12,79.63,522.12,66.5Z" transform="translate(-14.31 -9.44)"/></svg>